<?xml version="1.0" encoding="UTF-8"?>
<svg xmlns="http://www.w3.org/2000/svg" xmlns:xlink="http://www.w3.org/1999/xlink" width="439.768pt" height="127.957pt" viewBox="0 0 439.768 127.957" version="1.1">
<defs>
<clipPath id="clip1">
  <path d="M 85 113 L 100 113 L 100 127.957031 L 85 127.957031 Z M 85 113 "/>
</clipPath>
<clipPath id="clip2">
  <path d="M 79 107 L 106 107 L 106 127.957031 L 79 127.957031 Z M 79 107 "/>
</clipPath>
<clipPath id="clip3">
  <path d="M 141 113 L 157 113 L 157 127.957031 L 141 127.957031 Z M 141 113 "/>
</clipPath>
<clipPath id="clip4">
  <path d="M 136 107 L 162 107 L 162 127.957031 L 136 127.957031 Z M 136 107 "/>
</clipPath>
<clipPath id="clip5">
  <path d="M 425 0 L 439.769531 0 L 439.769531 15 L 425 15 Z M 425 0 "/>
</clipPath>
<clipPath id="clip6">
  <path d="M 419 0 L 439.769531 0 L 439.769531 21 L 419 21 Z M 419 0 "/>
</clipPath>
</defs>
<g id="surface1">
<path style="fill:none;stroke-width:0.3985;stroke-linecap:butt;stroke-linejoin:miter;stroke:rgb(0%,0%,0%);stroke-opacity:1;stroke-miterlimit:10;" d="M 7.085094 113.385844 C 7.085094 117.299906 3.913219 120.475688 -0.00084375 120.475688 C -3.914906 120.475688 -7.086781 117.299906 -7.086781 113.385844 C -7.086781 109.471781 -3.914906 106.299906 -0.00084375 106.299906 C 3.913219 106.299906 7.085094 109.471781 7.085094 113.385844 Z M 7.085094 113.385844 " transform="matrix(1,0,0,-1,7.286,120.671)"/>
<path style="fill-rule:nonzero;fill:rgb(100%,50%,50%);fill-opacity:1;stroke-width:0.3985;stroke-linecap:butt;stroke-linejoin:miter;stroke:rgb(0%,0%,0%);stroke-opacity:1;stroke-miterlimit:10;" d="M 21.260875 85.042094 C 21.260875 88.956156 18.089 92.128031 14.174937 92.128031 C 10.260875 92.128031 7.085094 88.956156 7.085094 85.042094 C 7.085094 81.128031 10.260875 77.95225 14.174937 77.95225 C 18.089 77.95225 21.260875 81.128031 21.260875 85.042094 Z M 21.260875 85.042094 " transform="matrix(1,0,0,-1,7.286,120.671)"/>
<path style="fill-rule:nonzero;fill:rgb(50%,50%,100%);fill-opacity:1;stroke-width:0.3985;stroke-linecap:butt;stroke-linejoin:miter;stroke:rgb(0%,0%,0%);stroke-opacity:1;stroke-miterlimit:10;" d="M 49.608531 85.042094 C 49.608531 88.956156 46.43275 92.128031 42.518687 92.128031 C 38.604625 92.128031 35.43275 88.956156 35.43275 85.042094 C 35.43275 81.128031 38.604625 77.95225 42.518687 77.95225 C 46.43275 77.95225 49.608531 81.128031 49.608531 85.042094 Z M 49.608531 85.042094 " transform="matrix(1,0,0,-1,7.286,120.671)"/>
<path style="fill:none;stroke-width:0.3985;stroke-linecap:butt;stroke-linejoin:miter;stroke:rgb(0%,0%,0%);stroke-opacity:1;stroke-miterlimit:10;" d="M 63.780406 56.694438 C 63.780406 60.6085 60.608531 63.780375 56.694469 63.780375 C 52.780406 63.780375 49.608531 60.6085 49.608531 56.694438 C 49.608531 52.780375 52.780406 49.6085 56.694469 49.6085 C 60.608531 49.6085 63.780406 52.780375 63.780406 56.694438 Z M 63.780406 56.694438 " transform="matrix(1,0,0,-1,7.286,120.671)"/>
<path style="fill-rule:nonzero;fill:rgb(50%,50%,100%);fill-opacity:1;stroke-width:0.3985;stroke-linecap:butt;stroke-linejoin:miter;stroke:rgb(0%,0%,0%);stroke-opacity:1;stroke-miterlimit:10;" d="M 77.952281 28.346781 C 77.952281 32.260844 74.780406 35.432719 70.866344 35.432719 C 66.952281 35.432719 63.780406 32.260844 63.780406 28.346781 C 63.780406 24.432719 66.952281 21.260844 70.866344 21.260844 C 74.780406 21.260844 77.952281 24.432719 77.952281 28.346781 Z M 77.952281 28.346781 " transform="matrix(1,0,0,-1,7.286,120.671)"/>
<g clip-path="url(#clip1)" clip-rule="nonzero">
<path style=" stroke:none;fill-rule:nonzero;fill:rgb(0%,0%,0%);fill-opacity:1;" d="M 99.414062 120.671875 C 99.414062 116.757812 96.242188 113.585938 92.328125 113.585938 C 88.414062 113.585938 85.238281 116.757812 85.238281 120.671875 C 85.238281 124.585938 88.414062 127.757812 92.328125 127.757812 C 96.242188 127.757812 99.414062 124.585938 99.414062 120.671875 Z M 99.414062 120.671875 "/>
</g>
<g clip-path="url(#clip2)" clip-rule="nonzero">
<path style="fill:none;stroke-width:0.3985;stroke-linecap:butt;stroke-linejoin:miter;stroke:rgb(0%,0%,0%);stroke-opacity:1;stroke-miterlimit:10;" d="M 92.128062 -0.000875 C 92.128062 3.913188 88.956187 7.085063 85.042125 7.085063 C 81.128062 7.085063 77.952281 3.913188 77.952281 -0.000875 C 77.952281 -3.914937 81.128062 -7.086812 85.042125 -7.086812 C 88.956187 -7.086812 92.128062 -3.914937 92.128062 -0.000875 Z M 92.128062 -0.000875 " transform="matrix(1,0,0,-1,7.286,120.671)"/>
</g>
<path style="fill:none;stroke-width:0.3985;stroke-linecap:butt;stroke-linejoin:miter;stroke:rgb(0%,0%,0%);stroke-opacity:1;stroke-miterlimit:10;" d="M 106.299937 28.346781 C 106.299937 32.260844 103.128062 35.432719 99.214 35.432719 C 95.299937 35.432719 92.128062 32.260844 92.128062 28.346781 C 92.128062 24.432719 95.299937 21.260844 99.214 21.260844 C 103.128062 21.260844 106.299937 24.432719 106.299937 28.346781 Z M 106.299937 28.346781 " transform="matrix(1,0,0,-1,7.286,120.671)"/>
<path style="fill-rule:nonzero;fill:rgb(100%,50%,50%);fill-opacity:1;stroke-width:0.3985;stroke-linecap:butt;stroke-linejoin:miter;stroke:rgb(0%,0%,0%);stroke-opacity:1;stroke-miterlimit:10;" d="M 120.475719 56.694438 C 120.475719 60.6085 117.299937 63.780375 113.385875 63.780375 C 109.471812 63.780375 106.299937 60.6085 106.299937 56.694438 C 106.299937 52.780375 109.471812 49.6085 113.385875 49.6085 C 117.299937 49.6085 120.475719 52.780375 120.475719 56.694438 Z M 120.475719 56.694438 " transform="matrix(1,0,0,-1,7.286,120.671)"/>
<path style="fill:none;stroke-width:0.3985;stroke-linecap:butt;stroke-linejoin:miter;stroke:rgb(0%,0%,0%);stroke-opacity:1;stroke-miterlimit:10;" d="M 134.647594 28.346781 C 134.647594 32.260844 131.475719 35.432719 127.561656 35.432719 C 123.647594 35.432719 120.475719 32.260844 120.475719 28.346781 C 120.475719 24.432719 123.647594 21.260844 127.561656 21.260844 C 131.475719 21.260844 134.647594 24.432719 134.647594 28.346781 Z M 134.647594 28.346781 " transform="matrix(1,0,0,-1,7.286,120.671)"/>
<g clip-path="url(#clip3)" clip-rule="nonzero">
<path style=" stroke:none;fill-rule:nonzero;fill:rgb(0%,0%,0%);fill-opacity:1;" d="M 156.105469 120.671875 C 156.105469 116.757812 152.933594 113.585938 149.019531 113.585938 C 145.105469 113.585938 141.933594 116.757812 141.933594 120.671875 C 141.933594 124.585938 145.105469 127.757812 149.019531 127.757812 C 152.933594 127.757812 156.105469 124.585938 156.105469 120.671875 Z M 156.105469 120.671875 "/>
</g>
<g clip-path="url(#clip4)" clip-rule="nonzero">
<path style="fill:none;stroke-width:0.3985;stroke-linecap:butt;stroke-linejoin:miter;stroke:rgb(0%,0%,0%);stroke-opacity:1;stroke-miterlimit:10;" d="M 148.819469 -0.000875 C 148.819469 3.913188 145.647594 7.085063 141.733531 7.085063 C 137.819469 7.085063 134.647594 3.913188 134.647594 -0.000875 C 134.647594 -3.914937 137.819469 -7.086812 141.733531 -7.086812 C 145.647594 -7.086812 148.819469 -3.914937 148.819469 -0.000875 Z M 148.819469 -0.000875 " transform="matrix(1,0,0,-1,7.286,120.671)"/>
</g>
<path style="fill:none;stroke-width:0.3985;stroke-linecap:butt;stroke-linejoin:miter;stroke:rgb(0%,0%,0%);stroke-opacity:1;stroke-miterlimit:10;" d="M 162.99525 28.346781 C 162.99525 32.260844 159.819469 35.432719 155.909312 35.432719 C 151.99525 35.432719 148.819469 32.260844 148.819469 28.346781 C 148.819469 24.432719 151.99525 21.260844 155.909312 21.260844 C 159.819469 21.260844 162.99525 24.432719 162.99525 28.346781 Z M 162.99525 28.346781 " transform="matrix(1,0,0,-1,7.286,120.671)"/>
<path style="fill-rule:nonzero;fill:rgb(50%,50%,100%);fill-opacity:1;stroke-width:0.3985;stroke-linecap:butt;stroke-linejoin:miter;stroke:rgb(0%,0%,0%);stroke-opacity:1;stroke-miterlimit:10;" d="M 177.167125 56.694438 C 177.167125 60.6085 173.99525 63.780375 170.081187 63.780375 C 166.167125 63.780375 162.99525 60.6085 162.99525 56.694438 C 162.99525 52.780375 166.167125 49.6085 170.081187 49.6085 C 173.99525 49.6085 177.167125 52.780375 177.167125 56.694438 Z M 177.167125 56.694438 " transform="matrix(1,0,0,-1,7.286,120.671)"/>
<path style="fill:none;stroke-width:0.3985;stroke-linecap:butt;stroke-linejoin:miter;stroke:rgb(0%,0%,0%);stroke-opacity:1;stroke-miterlimit:10;" d="M 191.339 85.042094 C 191.339 88.956156 188.167125 92.128031 184.253062 92.128031 C 180.339 92.128031 177.167125 88.956156 177.167125 85.042094 C 177.167125 81.128031 180.339 77.95225 184.253062 77.95225 C 188.167125 77.95225 191.339 81.128031 191.339 85.042094 Z M 191.339 85.042094 " transform="matrix(1,0,0,-1,7.286,120.671)"/>
<path style="fill-rule:nonzero;fill:rgb(100%,50%,50%);fill-opacity:1;stroke-width:0.3985;stroke-linecap:butt;stroke-linejoin:miter;stroke:rgb(0%,0%,0%);stroke-opacity:1;stroke-miterlimit:10;" d="M 205.514781 56.694438 C 205.514781 60.6085 202.342906 63.780375 198.428844 63.780375 C 194.514781 63.780375 191.342906 60.6085 191.342906 56.694438 C 191.342906 52.780375 194.514781 49.6085 198.428844 49.6085 C 202.342906 49.6085 205.514781 52.780375 205.514781 56.694438 Z M 205.514781 56.694438 " transform="matrix(1,0,0,-1,7.286,120.671)"/>
<path style="fill:none;stroke-width:0.3985;stroke-linecap:butt;stroke-linejoin:miter;stroke:rgb(0%,0%,0%);stroke-opacity:1;stroke-miterlimit:10;" d="M 219.686656 85.042094 C 219.686656 88.956156 216.514781 92.128031 212.600719 92.128031 C 208.686656 92.128031 205.514781 88.956156 205.514781 85.042094 C 205.514781 81.128031 208.686656 77.95225 212.600719 77.95225 C 216.514781 77.95225 219.686656 81.128031 219.686656 85.042094 Z M 219.686656 85.042094 " transform="matrix(1,0,0,-1,7.286,120.671)"/>
<path style="fill:none;stroke-width:0.3985;stroke-linecap:butt;stroke-linejoin:miter;stroke:rgb(0%,0%,0%);stroke-opacity:1;stroke-miterlimit:10;" d="M 233.862437 113.385844 C 233.862437 117.299906 230.686656 120.475688 226.772594 120.475688 C 222.862437 120.475688 219.686656 117.299906 219.686656 113.385844 C 219.686656 109.471781 222.862437 106.299906 226.772594 106.299906 C 230.686656 106.299906 233.862437 109.471781 233.862437 113.385844 Z M 233.862437 113.385844 " transform="matrix(1,0,0,-1,7.286,120.671)"/>
<path style="fill:none;stroke-width:0.3985;stroke-linecap:butt;stroke-linejoin:miter;stroke:rgb(0%,0%,0%);stroke-opacity:1;stroke-miterlimit:10;" d="M 248.034312 85.042094 C 248.034312 88.956156 244.862437 92.128031 240.948375 92.128031 C 237.034312 92.128031 233.862437 88.956156 233.862437 85.042094 C 233.862437 81.128031 237.034312 77.95225 240.948375 77.95225 C 244.862437 77.95225 248.034312 81.128031 248.034312 85.042094 Z M 248.034312 85.042094 " transform="matrix(1,0,0,-1,7.286,120.671)"/>
<path style="fill-rule:nonzero;fill:rgb(50%,50%,100%);fill-opacity:1;stroke-width:0.3985;stroke-linecap:butt;stroke-linejoin:miter;stroke:rgb(0%,0%,0%);stroke-opacity:1;stroke-miterlimit:10;" d="M 262.206187 56.694438 C 262.206187 60.6085 259.034312 63.780375 255.12025 63.780375 C 251.206187 63.780375 248.034312 60.6085 248.034312 56.694438 C 248.034312 52.780375 251.206187 49.6085 255.12025 49.6085 C 259.034312 49.6085 262.206187 52.780375 262.206187 56.694438 Z M 262.206187 56.694438 " transform="matrix(1,0,0,-1,7.286,120.671)"/>
<path style="fill:none;stroke-width:0.3985;stroke-linecap:butt;stroke-linejoin:miter;stroke:rgb(0%,0%,0%);stroke-opacity:1;stroke-miterlimit:10;" d="M 276.381969 85.042094 C 276.381969 88.956156 273.210094 92.128031 269.296031 92.128031 C 265.381969 92.128031 262.206187 88.956156 262.206187 85.042094 C 262.206187 81.128031 265.381969 77.95225 269.296031 77.95225 C 273.210094 77.95225 276.381969 81.128031 276.381969 85.042094 Z M 276.381969 85.042094 " transform="matrix(1,0,0,-1,7.286,120.671)"/>
<path style="fill:none;stroke-width:0.3985;stroke-linecap:butt;stroke-linejoin:miter;stroke:rgb(0%,0%,0%);stroke-opacity:1;stroke-miterlimit:10;" d="M 290.553844 113.385844 C 290.553844 117.299906 287.381969 120.475688 283.467906 120.475688 C 279.553844 120.475688 276.381969 117.299906 276.381969 113.385844 C 276.381969 109.471781 279.553844 106.299906 283.467906 106.299906 C 287.381969 106.299906 290.553844 109.471781 290.553844 113.385844 Z M 290.553844 113.385844 " transform="matrix(1,0,0,-1,7.286,120.671)"/>
<path style="fill:none;stroke-width:0.3985;stroke-linecap:butt;stroke-linejoin:miter;stroke:rgb(0%,0%,0%);stroke-opacity:1;stroke-miterlimit:10;" d="M 304.729625 85.042094 C 304.729625 88.956156 301.553844 92.128031 297.639781 92.128031 C 293.725719 92.128031 290.553844 88.956156 290.553844 85.042094 C 290.553844 81.128031 293.725719 77.95225 297.639781 77.95225 C 301.553844 77.95225 304.729625 81.128031 304.729625 85.042094 Z M 304.729625 85.042094 " transform="matrix(1,0,0,-1,7.286,120.671)"/>
<path style="fill-rule:nonzero;fill:rgb(50%,50%,100%);fill-opacity:1;stroke-width:0.3985;stroke-linecap:butt;stroke-linejoin:miter;stroke:rgb(0%,0%,0%);stroke-opacity:1;stroke-miterlimit:10;" d="M 318.9015 56.694438 C 318.9015 60.6085 315.729625 63.780375 311.815562 63.780375 C 307.9015 63.780375 304.729625 60.6085 304.729625 56.694438 C 304.729625 52.780375 307.9015 49.6085 311.815562 49.6085 C 315.729625 49.6085 318.9015 52.780375 318.9015 56.694438 Z M 318.9015 56.694438 " transform="matrix(1,0,0,-1,7.286,120.671)"/>
<path style="fill:none;stroke-width:0.3985;stroke-linecap:butt;stroke-linejoin:miter;stroke:rgb(0%,0%,0%);stroke-opacity:1;stroke-miterlimit:10;" d="M 333.073375 85.042094 C 333.073375 88.956156 329.9015 92.128031 325.987437 92.128031 C 322.073375 92.128031 318.9015 88.956156 318.9015 85.042094 C 318.9015 81.128031 322.073375 77.95225 325.987437 77.95225 C 329.9015 77.95225 333.073375 81.128031 333.073375 85.042094 Z M 333.073375 85.042094 " transform="matrix(1,0,0,-1,7.286,120.671)"/>
<path style="fill:none;stroke-width:0.3985;stroke-linecap:butt;stroke-linejoin:miter;stroke:rgb(0%,0%,0%);stroke-opacity:1;stroke-miterlimit:10;" d="M 347.249156 113.385844 C 347.249156 117.299906 344.077281 120.475688 340.163219 120.475688 C 336.249156 120.475688 333.073375 117.299906 333.073375 113.385844 C 333.073375 109.471781 336.249156 106.299906 340.163219 106.299906 C 344.077281 106.299906 347.249156 109.471781 347.249156 113.385844 Z M 347.249156 113.385844 " transform="matrix(1,0,0,-1,7.286,120.671)"/>
<path style="fill:none;stroke-width:0.3985;stroke-linecap:butt;stroke-linejoin:miter;stroke:rgb(0%,0%,0%);stroke-opacity:1;stroke-miterlimit:10;" d="M 361.421031 85.042094 C 361.421031 88.956156 358.249156 92.128031 354.335094 92.128031 C 350.421031 92.128031 347.249156 88.956156 347.249156 85.042094 C 347.249156 81.128031 350.421031 77.95225 354.335094 77.95225 C 358.249156 77.95225 361.421031 81.128031 361.421031 85.042094 Z M 361.421031 85.042094 " transform="matrix(1,0,0,-1,7.286,120.671)"/>
<path style="fill-rule:nonzero;fill:rgb(50%,50%,100%);fill-opacity:1;stroke-width:0.3985;stroke-linecap:butt;stroke-linejoin:miter;stroke:rgb(0%,0%,0%);stroke-opacity:1;stroke-miterlimit:10;" d="M 375.596812 56.694438 C 375.596812 60.6085 372.421031 63.780375 368.506969 63.780375 C 364.592906 63.780375 361.421031 60.6085 361.421031 56.694438 C 361.421031 52.780375 364.592906 49.6085 368.506969 49.6085 C 372.421031 49.6085 375.596812 52.780375 375.596812 56.694438 Z M 375.596812 56.694438 " transform="matrix(1,0,0,-1,7.286,120.671)"/>
<path style="fill:none;stroke-width:0.3985;stroke-linecap:butt;stroke-linejoin:miter;stroke:rgb(0%,0%,0%);stroke-opacity:1;stroke-miterlimit:10;" d="M 389.768687 85.042094 C 389.768687 88.956156 386.596812 92.128031 382.68275 92.128031 C 378.768687 92.128031 375.596812 88.956156 375.596812 85.042094 C 375.596812 81.128031 378.768687 77.95225 382.68275 77.95225 C 386.596812 77.95225 389.768687 81.128031 389.768687 85.042094 Z M 389.768687 85.042094 " transform="matrix(1,0,0,-1,7.286,120.671)"/>
<path style="fill:none;stroke-width:0.3985;stroke-linecap:butt;stroke-linejoin:miter;stroke:rgb(0%,0%,0%);stroke-opacity:1;stroke-miterlimit:10;" d="M 403.940562 113.385844 C 403.940562 117.299906 400.768687 120.475688 396.854625 120.475688 C 392.940562 120.475688 389.768687 117.299906 389.768687 113.385844 C 389.768687 109.471781 392.940562 106.299906 396.854625 106.299906 C 400.768687 106.299906 403.940562 109.471781 403.940562 113.385844 Z M 403.940562 113.385844 " transform="matrix(1,0,0,-1,7.286,120.671)"/>
<path style="fill-rule:nonzero;fill:rgb(50%,50%,100%);fill-opacity:1;stroke-width:0.3985;stroke-linecap:butt;stroke-linejoin:miter;stroke:rgb(0%,0%,0%);stroke-opacity:1;stroke-miterlimit:10;" d="M 418.116344 85.042094 C 418.116344 88.956156 414.944469 92.128031 411.030406 92.128031 C 407.116344 92.128031 403.940562 88.956156 403.940562 85.042094 C 403.940562 81.128031 407.116344 77.95225 411.030406 77.95225 C 414.944469 77.95225 418.116344 81.128031 418.116344 85.042094 Z M 418.116344 85.042094 " transform="matrix(1,0,0,-1,7.286,120.671)"/>
<g clip-path="url(#clip5)" clip-rule="nonzero">
<path style=" stroke:none;fill-rule:nonzero;fill:rgb(100%,50%,50%);fill-opacity:1;" d="M 439.574219 7.285156 C 439.574219 3.371094 436.402344 0.195312 432.488281 0.195312 C 428.574219 0.195312 425.402344 3.371094 425.402344 7.285156 C 425.402344 11.199219 428.574219 14.371094 432.488281 14.371094 C 436.402344 14.371094 439.574219 11.199219 439.574219 7.285156 Z M 439.574219 7.285156 "/>
</g>
<g clip-path="url(#clip6)" clip-rule="nonzero">
<path style="fill:none;stroke-width:0.3985;stroke-linecap:butt;stroke-linejoin:miter;stroke:rgb(0%,0%,0%);stroke-opacity:1;stroke-miterlimit:10;" d="M 432.288219 113.385844 C 432.288219 117.299906 429.116344 120.475688 425.202281 120.475688 C 421.288219 120.475688 418.116344 117.299906 418.116344 113.385844 C 418.116344 109.471781 421.288219 106.299906 425.202281 106.299906 C 429.116344 106.299906 432.288219 109.471781 432.288219 113.385844 Z M 432.288219 113.385844 " transform="matrix(1,0,0,-1,7.286,120.671)"/>
</g>
<path style="fill:none;stroke-width:0.3985;stroke-linecap:butt;stroke-linejoin:miter;stroke:rgb(0%,0%,0%);stroke-opacity:1;stroke-miterlimit:10;" d="M 3.256969 106.870219 L 10.710094 91.967875 " transform="matrix(1,0,0,-1,7.286,120.671)"/>
<path style="fill:none;stroke-width:0.31879;stroke-linecap:round;stroke-linejoin:round;stroke:rgb(0%,0%,0%);stroke-opacity:1;stroke-miterlimit:10;" d="M -1.196126 1.593569 C -1.096551 0.997837 0.00056441 0.0998626 0.299303 -0.00146681 C 0.000562613 -0.101044 -1.096569 -0.993757 -1.196154 -1.594729 " transform="matrix(0.4472,0.89438,0.89438,-0.4472,17.99637,28.70431)"/>
<path style="fill:none;stroke-width:0.3985;stroke-linecap:butt;stroke-linejoin:miter;stroke:rgb(0%,0%,0%);stroke-opacity:1;stroke-miterlimit:10;" d="M 21.460094 85.042094 L 34.7765 85.042094 " transform="matrix(1,0,0,-1,7.286,120.671)"/>
<path style="fill:none;stroke-width:0.31879;stroke-linecap:round;stroke-linejoin:round;stroke:rgb(0%,0%,0%);stroke-opacity:1;stroke-miterlimit:10;" d="M -1.194783 1.595424 C -1.097126 0.997767 0.00053 0.09933 0.297405 0.00167375 C 0.00053 -0.0998888 -1.097126 -0.99442 -1.194783 -1.592076 " transform="matrix(1,0,0,-1,42.06197,35.63058)"/>
<path style="fill:none;stroke-width:0.3985;stroke-linecap:butt;stroke-linejoin:miter;stroke:rgb(0%,0%,0%);stroke-opacity:1;stroke-miterlimit:10;" d="M 45.7765 78.522563 L 53.229625 63.620219 " transform="matrix(1,0,0,-1,7.286,120.671)"/>
<path style="fill:none;stroke-width:0.31879;stroke-linecap:round;stroke-linejoin:round;stroke:rgb(0%,0%,0%);stroke-opacity:1;stroke-miterlimit:10;" d="M -1.195864 1.592652 C -1.096275 0.996903 0.000890818 0.0989203 0.29964 -0.00240687 C 0.000892615 -0.101992 -1.096258 -0.994754 -1.195835 -1.595746 " transform="matrix(0.44717,0.89436,0.89436,-0.44717,60.5166,57.05125)"/>
<path style="fill:none;stroke-width:0.3985;stroke-linecap:butt;stroke-linejoin:miter;stroke:rgb(0%,0%,0%);stroke-opacity:1;stroke-miterlimit:10;" d="M 59.952281 50.178813 L 67.405406 35.272563 " transform="matrix(1,0,0,-1,7.286,120.671)"/>
<path style="fill:none;stroke-width:0.31879;stroke-linecap:round;stroke-linejoin:round;stroke:rgb(0%,0%,0%);stroke-opacity:1;stroke-miterlimit:10;" d="M -1.193855 1.594326 C -1.096028 0.9951 -0.0024058 0.0988725 0.298079 0.00103716 C -0.000660553 -0.0985399 -1.096045 -0.996494 -1.193883 -1.593972 " transform="matrix(0.4472,0.89438,0.89438,-0.4472,74.68999,85.39793)"/>
<path style="fill:none;stroke-width:0.3985;stroke-linecap:butt;stroke-linejoin:miter;stroke:rgb(0%,0%,0%);stroke-opacity:1;stroke-miterlimit:10;" d="M 74.124156 21.831156 L 81.577281 6.924906 " transform="matrix(1,0,0,-1,7.286,120.671)"/>
<path style="fill:none;stroke-width:0.31879;stroke-linecap:round;stroke-linejoin:round;stroke:rgb(0%,0%,0%);stroke-opacity:1;stroke-miterlimit:10;" d="M -1.197465 1.594399 C -1.094383 0.996903 -0.000710909 0.100667 0.298038 -0.000659822 C -0.000709111 -0.100245 -1.096112 -0.998248 -1.197437 -1.593998 " transform="matrix(0.44717,0.89436,0.89436,-0.44717,88.86341,113.74487)"/>
<path style="fill:none;stroke-width:0.3985;stroke-linecap:butt;stroke-linejoin:miter;stroke:rgb(0%,0%,0%);stroke-opacity:1;stroke-miterlimit:10;" d="M 88.299937 6.51475 L 95.749156 21.421 " transform="matrix(1,0,0,-1,7.286,120.671)"/>
<path style="fill:none;stroke-width:0.31879;stroke-linecap:round;stroke-linejoin:round;stroke:rgb(0%,0%,0%);stroke-opacity:1;stroke-miterlimit:10;" d="M -1.193543 1.593207 C -1.095705 0.99573 -0.000320089 0.0977751 0.29842 -0.00180192 C -0.00206534 -0.0996373 -1.095687 -0.995864 -1.193514 -1.595091 " transform="matrix(0.4472,-0.89438,-0.89438,-0.4472,103.03681,99.25047)"/>
<path style="fill:none;stroke-width:0.3985;stroke-linecap:butt;stroke-linejoin:miter;stroke:rgb(0%,0%,0%);stroke-opacity:1;stroke-miterlimit:10;" d="M 102.471812 34.862406 L 109.924937 49.768656 " transform="matrix(1,0,0,-1,7.286,120.671)"/>
<path style="fill:none;stroke-width:0.31879;stroke-linecap:round;stroke-linejoin:round;stroke:rgb(0%,0%,0%);stroke-opacity:1;stroke-miterlimit:10;" d="M -1.197092 1.593225 C -1.095767 0.997474 -0.000364177 0.0994716 0.298383 -0.000113922 C -0.000365975 -0.101441 -1.095785 -0.994183 -1.193626 -1.593426 " transform="matrix(0.44717,-0.89436,-0.89436,-0.44717,117.21022,70.90353)"/>
<path style="fill:none;stroke-width:0.3985;stroke-linecap:butt;stroke-linejoin:miter;stroke:rgb(0%,0%,0%);stroke-opacity:1;stroke-miterlimit:10;" d="M 116.643687 50.178813 L 124.096812 35.272563 " transform="matrix(1,0,0,-1,7.286,120.671)"/>
<path style="fill:none;stroke-width:0.31879;stroke-linecap:round;stroke-linejoin:round;stroke:rgb(0%,0%,0%);stroke-opacity:1;stroke-miterlimit:10;" d="M -1.194854 1.592328 C -1.09528 0.996596 -0.00165779 0.100369 0.29708 -0.000960859 C -0.00165958 -0.100538 -1.095297 -0.994998 -1.194882 -1.59597 " transform="matrix(0.4472,0.89438,0.89438,-0.4472,131.38363,85.39793)"/>
<path style="fill:none;stroke-width:0.3985;stroke-linecap:butt;stroke-linejoin:miter;stroke:rgb(0%,0%,0%);stroke-opacity:1;stroke-miterlimit:10;" d="M 130.819469 21.831156 L 138.272594 6.924906 " transform="matrix(1,0,0,-1,7.286,120.671)"/>
<path style="fill:none;stroke-width:0.31879;stroke-linecap:round;stroke-linejoin:round;stroke:rgb(0%,0%,0%);stroke-opacity:1;stroke-miterlimit:10;" d="M -1.196708 1.595913 C -1.095373 0.994923 -0.00170099 0.0986872 0.298795 0.000854123 C 0.0000478443 -0.0987314 -1.095355 -0.996734 -1.19668 -1.592485 " transform="matrix(0.44717,0.89436,0.89436,-0.44717,145.55703,113.74487)"/>
<path style="fill:none;stroke-width:0.3985;stroke-linecap:butt;stroke-linejoin:miter;stroke:rgb(0%,0%,0%);stroke-opacity:1;stroke-miterlimit:10;" d="M 144.991344 6.51475 L 152.444469 21.421 " transform="matrix(1,0,0,-1,7.286,120.671)"/>
<path style="fill:none;stroke-width:0.31879;stroke-linecap:round;stroke-linejoin:round;stroke:rgb(0%,0%,0%);stroke-opacity:1;stroke-miterlimit:10;" d="M -1.194533 1.595187 C -1.096695 0.99771 -0.00131017 0.0997552 0.29743 0.0001782 C -0.00130838 -0.101151 -1.09493 -0.997378 -1.194505 -1.593111 " transform="matrix(0.4472,-0.89438,-0.89438,-0.4472,159.73043,99.25047)"/>
<path style="fill:none;stroke-width:0.3985;stroke-linecap:butt;stroke-linejoin:miter;stroke:rgb(0%,0%,0%);stroke-opacity:1;stroke-miterlimit:10;" d="M 159.167125 34.862406 L 166.616344 49.768656 " transform="matrix(1,0,0,-1,7.286,120.671)"/>
<path style="fill:none;stroke-width:0.31879;stroke-linecap:round;stroke-linejoin:round;stroke:rgb(0%,0%,0%);stroke-opacity:1;stroke-miterlimit:10;" d="M -1.196335 1.591711 C -1.09501 0.99596 0.000392778 0.0979576 0.29914 -0.00162787 C -0.00135605 -0.0994609 -1.095028 -0.995697 -1.194616 -1.591446 " transform="matrix(0.44717,-0.89436,-0.89436,-0.44717,173.90384,70.90353)"/>
<path style="fill:none;stroke-width:0.3985;stroke-linecap:butt;stroke-linejoin:miter;stroke:rgb(0%,0%,0%);stroke-opacity:1;stroke-miterlimit:10;" d="M 173.339 63.210063 L 180.792125 78.112406 " transform="matrix(1,0,0,-1,7.286,120.671)"/>
<path style="fill:none;stroke-width:0.31879;stroke-linecap:round;stroke-linejoin:round;stroke:rgb(0%,0%,0%);stroke-opacity:1;stroke-miterlimit:10;" d="M -1.196135 1.59344 C -1.094803 0.99771 0.000582191 0.0997553 0.299322 0.000178217 C 0.000583988 -0.101151 -1.098279 -0.995631 -1.196106 -1.594858 " transform="matrix(0.4472,-0.89438,-0.89438,-0.4472,188.07724,42.55685)"/>
<path style="fill:none;stroke-width:0.3985;stroke-linecap:butt;stroke-linejoin:miter;stroke:rgb(0%,0%,0%);stroke-opacity:1;stroke-miterlimit:10;" d="M 187.510875 78.522563 L 194.964 63.620219 " transform="matrix(1,0,0,-1,7.286,120.671)"/>
<path style="fill:none;stroke-width:0.31879;stroke-linecap:round;stroke-linejoin:round;stroke:rgb(0%,0%,0%);stroke-opacity:1;stroke-miterlimit:10;" d="M -1.195718 1.592943 C -1.09613 0.997194 0.00103617 0.0992111 0.299786 -0.00211616 C 0.00103797 -0.101702 -1.096112 -0.994463 -1.19569 -1.595455 " transform="matrix(0.44717,0.89436,0.89436,-0.44717,202.25065,57.05125)"/>
<path style="fill:none;stroke-width:0.3985;stroke-linecap:butt;stroke-linejoin:miter;stroke:rgb(0%,0%,0%);stroke-opacity:1;stroke-miterlimit:10;" d="M 201.686656 63.210063 L 209.139781 78.112406 " transform="matrix(1,0,0,-1,7.286,120.671)"/>
<path style="fill:none;stroke-width:0.31879;stroke-linecap:round;stroke-linejoin:round;stroke:rgb(0%,0%,0%);stroke-opacity:1;stroke-miterlimit:10;" d="M -1.195756 1.592683 C -1.094424 0.996953 0.00096067 0.0989983 0.299701 -0.000578725 C -0.000784577 -0.0984141 -1.0979 -0.996388 -1.195728 -1.595614 " transform="matrix(0.4472,-0.89438,-0.89438,-0.4472,216.42405,42.55685)"/>
<path style="fill:none;stroke-width:0.3985;stroke-linecap:butt;stroke-linejoin:miter;stroke:rgb(0%,0%,0%);stroke-opacity:1;stroke-miterlimit:10;" d="M 215.858531 91.557719 L 223.311656 106.460063 " transform="matrix(1,0,0,-1,7.286,120.671)"/>
<path style="fill:none;stroke-width:0.31879;stroke-linecap:round;stroke-linejoin:round;stroke:rgb(0%,0%,0%);stroke-opacity:1;stroke-miterlimit:10;" d="M -1.195811 1.594448 C -1.097981 0.99695 0.000916643 0.100695 0.299664 0.00110929 C 0.000914846 -0.100218 -1.096251 -0.998201 -1.19584 -1.59395 " transform="matrix(0.44717,-0.89436,-0.89436,-0.44717,230.59746,14.20991)"/>
<path style="fill:none;stroke-width:0.3985;stroke-linecap:butt;stroke-linejoin:miter;stroke:rgb(0%,0%,0%);stroke-opacity:1;stroke-miterlimit:10;" d="M 230.034312 106.870219 L 237.483531 91.967875 " transform="matrix(1,0,0,-1,7.286,120.671)"/>
<path style="fill:none;stroke-width:0.31879;stroke-linecap:round;stroke-linejoin:round;stroke:rgb(0%,0%,0%);stroke-opacity:1;stroke-miterlimit:10;" d="M -1.196596 1.592628 C -1.097022 0.996895 0.0000936861 0.0989212 0.300579 0.00108577 C 0.00183893 -0.0984913 -1.09704 -0.994699 -1.194878 -1.592176 " transform="matrix(0.4472,0.89438,0.89438,-0.4472,244.77086,28.70431)"/>
<path style="fill:none;stroke-width:0.3985;stroke-linecap:butt;stroke-linejoin:miter;stroke:rgb(0%,0%,0%);stroke-opacity:1;stroke-miterlimit:10;" d="M 244.206187 78.522563 L 251.659312 63.620219 " transform="matrix(1,0,0,-1,7.286,120.671)"/>
<path style="fill:none;stroke-width:0.31879;stroke-linecap:round;stroke-linejoin:round;stroke:rgb(0%,0%,0%);stroke-opacity:1;stroke-miterlimit:10;" d="M -1.194957 1.594466 C -1.097116 0.995223 0.0017976 0.100734 0.300547 -0.000593271 C 0.0017994 -0.100179 -1.097098 -0.996434 -1.194928 -1.593932 " transform="matrix(0.44717,0.89436,0.89436,-0.44717,258.94426,57.05125)"/>
<path style="fill:none;stroke-width:0.3985;stroke-linecap:butt;stroke-linejoin:miter;stroke:rgb(0%,0%,0%);stroke-opacity:1;stroke-miterlimit:10;" d="M 258.378062 63.210063 L 265.831187 78.112406 " transform="matrix(1,0,0,-1,7.286,120.671)"/>
<path style="fill:none;stroke-width:0.31879;stroke-linecap:round;stroke-linejoin:round;stroke:rgb(0%,0%,0%);stroke-opacity:1;stroke-miterlimit:10;" d="M -1.196746 1.594663 C -1.093667 0.995439 -0.0000294145 0.100978 0.298711 0.0014014 C -0.0000276174 -0.099928 -1.097143 -0.997902 -1.196718 -1.593634 " transform="matrix(0.4472,-0.89438,-0.89438,-0.4472,273.11767,42.55685)"/>
<path style="fill:none;stroke-width:0.3985;stroke-linecap:butt;stroke-linejoin:miter;stroke:rgb(0%,0%,0%);stroke-opacity:1;stroke-miterlimit:10;" d="M 272.553844 91.557719 L 280.006969 106.460063 " transform="matrix(1,0,0,-1,7.286,120.671)"/>
<path style="fill:none;stroke-width:0.31879;stroke-linecap:round;stroke-linejoin:round;stroke:rgb(0%,0%,0%);stroke-opacity:1;stroke-miterlimit:10;" d="M -1.195054 1.592934 C -1.097224 0.995436 0.0016736 0.0991808 0.300421 -0.000404652 C -0.0000752339 -0.0982377 -1.097241 -0.99622 -1.195083 -1.595464 " transform="matrix(0.44717,-0.89436,-0.89436,-0.44717,287.29108,14.20991)"/>
<path style="fill:none;stroke-width:0.3985;stroke-linecap:butt;stroke-linejoin:miter;stroke:rgb(0%,0%,0%);stroke-opacity:1;stroke-miterlimit:10;" d="M 286.725719 106.870219 L 294.178844 91.967875 " transform="matrix(1,0,0,-1,7.286,120.671)"/>
<path style="fill:none;stroke-width:0.31879;stroke-linecap:round;stroke-linejoin:round;stroke:rgb(0%,0%,0%);stroke-opacity:1;stroke-miterlimit:10;" d="M -1.19584 1.594141 C -1.096265 0.998409 0.000850645 0.100435 0.299589 -0.000894355 C 0.000848848 -0.100471 -1.09803 -0.996679 -1.195868 -1.594156 " transform="matrix(0.4472,0.89438,0.89438,-0.4472,301.46448,28.70431)"/>
<path style="fill:none;stroke-width:0.3985;stroke-linecap:butt;stroke-linejoin:miter;stroke:rgb(0%,0%,0%);stroke-opacity:1;stroke-miterlimit:10;" d="M 300.9015 78.522563 L 308.350719 63.620219 " transform="matrix(1,0,0,-1,7.286,120.671)"/>
<path style="fill:none;stroke-width:0.31879;stroke-linecap:round;stroke-linejoin:round;stroke:rgb(0%,0%,0%);stroke-opacity:1;stroke-miterlimit:10;" d="M -1.195947 1.592485 C -1.096359 0.996736 0.00080752 0.0987537 0.301304 0.000920674 C 0.000809317 -0.102159 -1.096341 -0.99492 -1.195918 -1.595912 " transform="matrix(0.44717,0.89436,0.89436,-0.44717,315.63788,57.05125)"/>
<path style="fill:none;stroke-width:0.3985;stroke-linecap:butt;stroke-linejoin:miter;stroke:rgb(0%,0%,0%);stroke-opacity:1;stroke-miterlimit:10;" d="M 315.073375 63.210063 L 322.5265 78.112406 " transform="matrix(1,0,0,-1,7.286,120.671)"/>
<path style="fill:none;stroke-width:0.31879;stroke-linecap:round;stroke-linejoin:round;stroke:rgb(0%,0%,0%);stroke-opacity:1;stroke-miterlimit:10;" d="M -1.195985 1.593141 C -1.094653 0.99741 0.000732017 0.0994556 0.299472 -0.000121429 C -0.00101323 -0.0979568 -1.098129 -0.995931 -1.195956 -1.595157 " transform="matrix(0.4472,-0.89438,-0.89438,-0.4472,329.81128,42.55685)"/>
<path style="fill:none;stroke-width:0.3985;stroke-linecap:butt;stroke-linejoin:miter;stroke:rgb(0%,0%,0%);stroke-opacity:1;stroke-miterlimit:10;" d="M 329.24525 91.557719 L 336.698375 106.460063 " transform="matrix(1,0,0,-1,7.286,120.671)"/>
<path style="fill:none;stroke-width:0.31879;stroke-linecap:round;stroke-linejoin:round;stroke:rgb(0%,0%,0%);stroke-opacity:1;stroke-miterlimit:10;" d="M -1.196044 1.594914 C -1.096467 0.993922 0.000683519 0.101161 0.299431 0.00157555 C 0.000681722 -0.0997517 -1.096484 -0.997734 -1.196073 -1.593483 " transform="matrix(0.44717,-0.89436,-0.89436,-0.44717,343.9847,14.20991)"/>
<path style="fill:none;stroke-width:0.3985;stroke-linecap:butt;stroke-linejoin:miter;stroke:rgb(0%,0%,0%);stroke-opacity:1;stroke-miterlimit:10;" d="M 343.421031 106.870219 L 350.87025 91.967875 " transform="matrix(1,0,0,-1,7.286,120.671)"/>
<path style="fill:none;stroke-width:0.31879;stroke-linecap:round;stroke-linejoin:round;stroke:rgb(0%,0%,0%);stroke-opacity:1;stroke-miterlimit:10;" d="M -1.195083 1.595655 C -1.097255 0.996429 -0.000139439 0.0984549 0.300346 0.000619529 C 0.00160581 -0.0989575 -1.097273 -0.995165 -1.195111 -1.592642 " transform="matrix(0.4472,0.89438,0.89438,-0.4472,358.1581,28.70431)"/>
<path style="fill:none;stroke-width:0.3985;stroke-linecap:butt;stroke-linejoin:miter;stroke:rgb(0%,0%,0%);stroke-opacity:1;stroke-miterlimit:10;" d="M 357.592906 78.522563 L 365.046031 63.620219 " transform="matrix(1,0,0,-1,7.286,120.671)"/>
<path style="fill:none;stroke-width:0.31879;stroke-linecap:round;stroke-linejoin:round;stroke:rgb(0%,0%,0%);stroke-opacity:1;stroke-miterlimit:10;" d="M -1.195199 1.593982 C -1.095611 0.998233 0.00155553 0.10025 0.300305 -0.00107742 C 0.00155733 -0.100663 -1.09734 -0.996918 -1.19517 -1.594416 " transform="matrix(0.44717,0.89436,0.89436,-0.44717,372.33152,57.05125)"/>
<path style="fill:none;stroke-width:0.3985;stroke-linecap:butt;stroke-linejoin:miter;stroke:rgb(0%,0%,0%);stroke-opacity:1;stroke-miterlimit:10;" d="M 371.764781 63.210063 L 379.217906 78.112406 " transform="matrix(1,0,0,-1,7.286,120.671)"/>
<path style="fill:none;stroke-width:0.31879;stroke-linecap:round;stroke-linejoin:round;stroke:rgb(0%,0%,0%);stroke-opacity:1;stroke-miterlimit:10;" d="M -1.196975 1.595121 C -1.093896 0.995896 -0.000258068 0.101436 0.298482 0.0018587 C -0.00025627 -0.0994707 -1.097372 -0.997445 -1.196946 -1.593177 " transform="matrix(0.4472,-0.89438,-0.89438,-0.4472,386.5049,42.55685)"/>
<path style="fill:none;stroke-width:0.3985;stroke-linecap:butt;stroke-linejoin:miter;stroke:rgb(0%,0%,0%);stroke-opacity:1;stroke-miterlimit:10;" d="M 385.940562 91.557719 L 393.393687 106.460063 " transform="matrix(1,0,0,-1,7.286,120.671)"/>
<path style="fill:none;stroke-width:0.31879;stroke-linecap:round;stroke-linejoin:round;stroke:rgb(0%,0%,0%);stroke-opacity:1;stroke-miterlimit:10;" d="M -1.195287 1.5934 C -1.097457 0.995902 0.00144047 0.0996471 0.300188 0.0000616069 C -0.000308358 -0.0977715 -1.097475 -0.995754 -1.195316 -1.594997 " transform="matrix(0.44717,-0.89436,-0.89436,-0.44717,400.67832,14.20991)"/>
<path style="fill:none;stroke-width:0.3985;stroke-linecap:butt;stroke-linejoin:miter;stroke:rgb(0%,0%,0%);stroke-opacity:1;stroke-miterlimit:10;" d="M 400.112437 106.870219 L 407.565562 91.967875 " transform="matrix(1,0,0,-1,7.286,120.671)"/>
<path style="fill:none;stroke-width:0.31879;stroke-linecap:round;stroke-linejoin:round;stroke:rgb(0%,0%,0%);stroke-opacity:1;stroke-miterlimit:10;" d="M -1.196073 1.593675 C -1.096498 0.997943 0.00061752 0.0999688 0.299356 -0.0013606 C 0.000615723 -0.100938 -1.098263 -0.997145 -1.196101 -1.594623 " transform="matrix(0.4472,0.89438,0.89438,-0.4472,414.85172,28.70431)"/>
<path style="fill:none;stroke-width:0.3985;stroke-linecap:butt;stroke-linejoin:miter;stroke:rgb(0%,0%,0%);stroke-opacity:1;stroke-miterlimit:10;" d="M 414.288219 91.557719 L 421.737437 106.460063 " transform="matrix(1,0,0,-1,7.286,120.671)"/>
<path style="fill:none;stroke-width:0.31879;stroke-linecap:round;stroke-linejoin:round;stroke:rgb(0%,0%,0%);stroke-opacity:1;stroke-miterlimit:10;" d="M -1.194913 1.592652 C -1.097083 0.995154 0.00181448 0.0988991 0.300562 -0.000686421 C 0.0000656471 -0.0985195 -1.097101 -0.996502 -1.194942 -1.595745 " transform="matrix(0.44717,-0.89436,-0.89436,-0.44717,429.02514,14.20991)"/>
</g>
</svg>
